<svg xmlns="http://www.w3.org/2000/svg" width="512" height="512" viewBox="0 0 512 512">
  <g fill="none" fill-rule="evenodd">
    <circle cx="256" cy="256" r="256" fill="#F188AD"/>
    <path fill="#000000" d="M226.916693,53.5774675 C226.876312,52.233229 226.347989,30.9983044 226.40183,25.7931706 C226.459037,20.5914058 227.478667,6.88286886 227.737781,5.59927275 C227.869021,4.95579018 228.29639,3.47005296 228.360327,3.33192319 C228.642997,3.72609837 230.022694,7.22987778 230.389492,8.46293861 C231.833126,13.4187651 232.805644,18.2263547 233.599811,22.3298194 C235.15786,30.556963 235.982313,36.0956297 235.982313,36.0956297 C235.982313,36.0956297 235.59869,30.5165348 234.690109,22.1613685 C234.218993,17.9837853 233.636828,13.1189224 232.556626,7.90368151 C232.277321,6.59987129 231.06588,2.56041792 230.614954,1.81249578 C229.420339,-0.340307148 227.761337,0.0673441096 227.293586,0.24253308 C225.903793,1.0948948 225.742268,1.95736358 225.36874,2.6648575 C225.052419,3.40267258 223.928471,7.65437413 223.655897,9.06262393 C222.632902,14.6855161 222.047372,20.2915631 221.57289,25.5506012 C221.101774,30.8096394 219.856682,53.9413215 219.856682,53.9413215 C219.856682,53.9413215 219.910523,117.588822 97.8779917,140.811468 C95.4113624,141.279761 92.8976214,141.518962 90.4074363,141.518962 L90.4007061,141.518962 C49.093919,141.518962 15.5033406,76.8405413 10.6474796,60.3087668 C9.87013806,57.6607181 7.68281329,47.176332 7.47081104,40.6909711 C7.31601575,32.3964472 8.52745716,5.05012271 8.67552222,4.4538064 C8.68225245,4.42685425 8.6923478,4.39990211 8.69907803,4.37294996 C8.84714309,4.70311378 9.93071013,7.81945604 10.2537612,9.05925491 C11.5291398,14.0454025 15.2072105,36.6751009 15.2072105,36.6751009 C15.2072105,36.6751009 14.6183154,21.7840384 12.441086,8.57748524 C11.7041258,4.12027356 10.4758588,1.72827031 10.0013775,1.24313162 C8.43323394,-0.340307148 7.36649247,0.956765036 7.20496695,1.09152578 C5.77815817,2.31447956 5.3810746,5.00295645 5.15897701,5.69697429 C3.12644752,12.0509435 2.01932467,32.2212582 1.50782719,40.5899005 C1.17804592,47.5604002 0.989599473,52.5431787 0.871820446,54.0221779 C-0.0367606142,65.58465 5.46183736,140.501518 23.879112,189.648762 C24.6093419,191.599424 26.2178669,192.293442 27.4831502,192.293442 C30.8011536,192.293442 31.4775417,189.615072 33.2947039,182.462645 C34.0081082,179.652884 35.2733915,174.65326 36.4781027,171.543656 C39.3721016,174.006408 50.8639695,269.582099 75.9509021,295.786326 C77.2397411,297.133933 78.5588662,297.895332 80.0361517,297.895332 C85.4943683,297.895332 85.9419286,291.187615 86.830319,277.822718 C87.3115305,270.589435 88.3109696,255.53666 90.7607734,253.88921 C92.3053612,254.077875 93.4797863,254.778631 94.4590348,256.092548 C100.866214,264.653225 96.3031178,292.515009 93.2879748,310.950279 C92.2044077,317.57377 91.2655406,323.294363 90.8213454,327.758313 C90.4377223,331.609101 90.8684571,333.910141 92.2683449,335.45989 C93.1601004,336.447012 94.3883674,336.996162 95.7243181,336.996162 C107.438284,336.996162 138.373786,274.00562 150.205531,233.270816 C152.631778,239.749439 154.462401,258.801239 148.758531,273.237484 C145.359765,281.838589 145.504465,283.603954 146.423141,285.584937 C147.210578,287.282923 149.515682,287.222281 149.515682,287.222281 C152.601492,287.222281 187.78377,228.146538 189.711981,224.865114 C204.192071,200.237588 208.337893,175.20241 210.814618,160.243967 C211.097287,158.542613 211.393417,156.753664 211.686182,155.139904 C212.564477,159.876744 212.931275,166.948314 213.106261,170.249953 C213.51344,178.059338 213.681696,181.290227 217.568403,181.293596 L217.571769,181.293596 C218.806766,181.293596 220.485958,180.734339 221.461842,178.066076 C240.067563,127.365714 235.665992,102.670807 227.673844,57.8460141 L226.916693,53.5774675 L226.916693,53.5774675 Z" transform="translate(138 90)"/>
  </g>
</svg>
